<mxfile host="app.diagrams.net" agent="Mozilla/5.0 (Windows NT 10.0; Win64; x64) AppleWebKit/537.36 (KHTML, like Gecko) Chrome/133.0.0.0 Safari/537.36 Edg/133.0.0.0" version="26.1.0">
  <diagram name="第 1 页" id="i5x8LV_zLwvaXv0jKqHm">
    <mxGraphModel dx="2221" dy="1889" grid="1" gridSize="10" guides="1" tooltips="1" connect="1" arrows="1" fold="1" page="1" pageScale="1" pageWidth="827" pageHeight="1169" math="0" shadow="0">
      <root>
        <mxCell id="0" />
        <mxCell id="1" parent="0" />
        <mxCell id="oOY07CiMVo815jskU7s_-1" value="" style="verticalLabelPosition=bottom;verticalAlign=top;html=1;shadow=0;dashed=0;strokeWidth=1;strokeColor=none;shape=rect;fillColor=#ffbb33;opacity=30;" vertex="1" parent="1">
          <mxGeometry x="520" y="2260" width="1600" height="740" as="geometry" />
        </mxCell>
        <mxCell id="oOY07CiMVo815jskU7s_-2" value="" style="verticalLabelPosition=bottom;verticalAlign=top;html=1;shadow=0;dashed=0;strokeWidth=1;strokeColor=#6c8ebf;shape=rect;fillColor=#dae8fc;opacity=30;" vertex="1" parent="1">
          <mxGeometry x="890" y="1890" width="1320" height="360" as="geometry" />
        </mxCell>
        <mxCell id="oOY07CiMVo815jskU7s_-3" value="" style="verticalLabelPosition=bottom;verticalAlign=top;html=1;shadow=0;dashed=0;strokeWidth=1;strokeColor=none;shape=rect;fillColor=#0099cc;opacity=30;rounded=0;" vertex="1" parent="1">
          <mxGeometry x="530" y="990" width="1480" height="890" as="geometry" />
        </mxCell>
        <mxCell id="oOY07CiMVo815jskU7s_-4" value="&lt;span style=&quot;color: rgb(0, 0, 0);&quot;&gt;ViewRootImpl&lt;/span&gt;" style="shape=umlLifeline;perimeter=lifelinePerimeter;whiteSpace=wrap;html=1;container=1;dropTarget=0;collapsible=0;recursiveResize=0;outlineConnect=0;portConstraint=eastwest;newEdgeStyle={&quot;curved&quot;:0,&quot;rounded&quot;:0};" vertex="1" parent="1">
          <mxGeometry x="50" y="860" width="100" height="300" as="geometry" />
        </mxCell>
        <mxCell id="oOY07CiMVo815jskU7s_-5" value="" style="html=1;points=[[0,0,0,0,5],[0,1,0,0,-5],[1,0,0,0,5],[1,1,0,0,-5]];perimeter=orthogonalPerimeter;outlineConnect=0;targetShapes=umlLifeline;portConstraint=eastwest;newEdgeStyle={&quot;curved&quot;:0,&quot;rounded&quot;:0};" vertex="1" parent="oOY07CiMVo815jskU7s_-4">
          <mxGeometry x="45" y="60" width="10" height="60" as="geometry" />
        </mxCell>
        <mxCell id="oOY07CiMVo815jskU7s_-6" value="&lt;span style=&quot;color: rgb(0, 0, 0);&quot;&gt;doDie&lt;/span&gt;" style="html=1;verticalAlign=bottom;startArrow=oval;endArrow=block;startSize=8;curved=0;rounded=0;entryX=0;entryY=0;entryDx=0;entryDy=5;" edge="1" parent="1" target="oOY07CiMVo815jskU7s_-5">
          <mxGeometry relative="1" as="geometry">
            <mxPoint x="20" y="925" as="sourcePoint" />
          </mxGeometry>
        </mxCell>
        <mxCell id="oOY07CiMVo815jskU7s_-7" value="&lt;span style=&quot;color: rgb(0, 0, 0);&quot;&gt;WindowSession&lt;/span&gt;" style="shape=umlLifeline;perimeter=lifelinePerimeter;whiteSpace=wrap;html=1;container=1;dropTarget=0;collapsible=0;recursiveResize=0;outlineConnect=0;portConstraint=eastwest;newEdgeStyle={&quot;curved&quot;:0,&quot;rounded&quot;:0};" vertex="1" parent="1">
          <mxGeometry x="190" y="860" width="100" height="300" as="geometry" />
        </mxCell>
        <mxCell id="oOY07CiMVo815jskU7s_-8" value="" style="html=1;points=[[0,0,0,0,5],[0,1,0,0,-5],[1,0,0,0,5],[1,1,0,0,-5]];perimeter=orthogonalPerimeter;outlineConnect=0;targetShapes=umlLifeline;portConstraint=eastwest;newEdgeStyle={&quot;curved&quot;:0,&quot;rounded&quot;:0};" vertex="1" parent="oOY07CiMVo815jskU7s_-7">
          <mxGeometry x="45" y="90" width="10" height="50" as="geometry" />
        </mxCell>
        <mxCell id="oOY07CiMVo815jskU7s_-9" value="&lt;span style=&quot;color: rgb(0, 0, 0); font-size: 12px; background-color: rgb(251, 251, 251);&quot;&gt;remove&lt;/span&gt;" style="html=1;verticalAlign=bottom;endArrow=block;curved=0;rounded=0;entryX=0;entryY=0;entryDx=0;entryDy=5;" edge="1" parent="1" source="oOY07CiMVo815jskU7s_-5" target="oOY07CiMVo815jskU7s_-8">
          <mxGeometry relative="1" as="geometry">
            <mxPoint x="350" y="1005" as="sourcePoint" />
            <mxPoint as="offset" />
          </mxGeometry>
        </mxCell>
        <mxCell id="oOY07CiMVo815jskU7s_-10" value="&lt;span style=&quot;color: rgb(0, 0, 0);&quot;&gt;WindowManagerService&lt;/span&gt;" style="shape=umlLifeline;perimeter=lifelinePerimeter;whiteSpace=wrap;html=1;container=1;dropTarget=0;collapsible=0;recursiveResize=0;outlineConnect=0;portConstraint=eastwest;newEdgeStyle={&quot;curved&quot;:0,&quot;rounded&quot;:0};" vertex="1" parent="1">
          <mxGeometry x="320" y="860" width="160" height="300" as="geometry" />
        </mxCell>
        <mxCell id="oOY07CiMVo815jskU7s_-11" value="" style="html=1;points=[[0,0,0,0,5],[0,1,0,0,-5],[1,0,0,0,5],[1,1,0,0,-5]];perimeter=orthogonalPerimeter;outlineConnect=0;targetShapes=umlLifeline;portConstraint=eastwest;newEdgeStyle={&quot;curved&quot;:0,&quot;rounded&quot;:0};" vertex="1" parent="oOY07CiMVo815jskU7s_-10">
          <mxGeometry x="75" y="120" width="10" height="60" as="geometry" />
        </mxCell>
        <mxCell id="oOY07CiMVo815jskU7s_-12" value="&lt;span style=&quot;color: rgb(0, 0, 0); font-size: 12px; background-color: rgb(251, 251, 251);&quot;&gt;removeWindow&lt;/span&gt;" style="html=1;verticalAlign=bottom;endArrow=block;curved=0;rounded=0;entryX=0;entryY=0;entryDx=0;entryDy=5;" edge="1" parent="1" source="oOY07CiMVo815jskU7s_-8" target="oOY07CiMVo815jskU7s_-11">
          <mxGeometry relative="1" as="geometry">
            <mxPoint x="330" y="985" as="sourcePoint" />
            <mxPoint as="offset" />
          </mxGeometry>
        </mxCell>
        <mxCell id="oOY07CiMVo815jskU7s_-13" value="&lt;span style=&quot;color: rgb(0, 0, 0);&quot;&gt;WindowState&lt;/span&gt;" style="shape=umlLifeline;perimeter=lifelinePerimeter;whiteSpace=wrap;html=1;container=1;dropTarget=0;collapsible=0;recursiveResize=0;outlineConnect=0;portConstraint=eastwest;newEdgeStyle={&quot;curved&quot;:0,&quot;rounded&quot;:0};" vertex="1" parent="1">
          <mxGeometry x="500" y="860" width="100" height="2080" as="geometry" />
        </mxCell>
        <mxCell id="oOY07CiMVo815jskU7s_-14" value="" style="html=1;points=[[0,0,0,0,5],[0,1,0,0,-5],[1,0,0,0,5],[1,1,0,0,-5]];perimeter=orthogonalPerimeter;outlineConnect=0;targetShapes=umlLifeline;portConstraint=eastwest;newEdgeStyle={&quot;curved&quot;:0,&quot;rounded&quot;:0};" vertex="1" parent="oOY07CiMVo815jskU7s_-13">
          <mxGeometry x="45" y="140" width="10" height="420" as="geometry" />
        </mxCell>
        <mxCell id="oOY07CiMVo815jskU7s_-15" value="" style="html=1;points=[[0,0,0,0,5],[0,1,0,0,-5],[1,0,0,0,5],[1,1,0,0,-5]];perimeter=orthogonalPerimeter;outlineConnect=0;targetShapes=umlLifeline;portConstraint=eastwest;newEdgeStyle={&quot;curved&quot;:0,&quot;rounded&quot;:0};" vertex="1" parent="oOY07CiMVo815jskU7s_-13">
          <mxGeometry x="55" y="360" width="10" height="180" as="geometry" />
        </mxCell>
        <mxCell id="oOY07CiMVo815jskU7s_-16" value="startAnimation" style="html=1;align=left;spacingLeft=2;endArrow=block;rounded=0;edgeStyle=orthogonalEdgeStyle;curved=0;rounded=0;" edge="1" parent="oOY07CiMVo815jskU7s_-13" source="oOY07CiMVo815jskU7s_-14" target="oOY07CiMVo815jskU7s_-15">
          <mxGeometry relative="1" as="geometry">
            <mxPoint x="60" y="340" as="sourcePoint" />
            <Array as="points">
              <mxPoint x="90" y="350" />
              <mxPoint x="90" y="380" />
            </Array>
            <mxPoint as="offset" />
          </mxGeometry>
        </mxCell>
        <mxCell id="oOY07CiMVo815jskU7s_-17" value="" style="html=1;points=[[0,0,0,0,5],[0,1,0,0,-5],[1,0,0,0,5],[1,1,0,0,-5]];perimeter=orthogonalPerimeter;outlineConnect=0;targetShapes=umlLifeline;portConstraint=eastwest;newEdgeStyle={&quot;curved&quot;:0,&quot;rounded&quot;:0};" vertex="1" parent="oOY07CiMVo815jskU7s_-13">
          <mxGeometry x="45" y="1740" width="10" height="70" as="geometry" />
        </mxCell>
        <mxCell id="oOY07CiMVo815jskU7s_-18" value="" style="html=1;points=[[0,0,0,0,5],[0,1,0,0,-5],[1,0,0,0,5],[1,1,0,0,-5]];perimeter=orthogonalPerimeter;outlineConnect=0;targetShapes=umlLifeline;portConstraint=eastwest;newEdgeStyle={&quot;curved&quot;:0,&quot;rounded&quot;:0};" vertex="1" parent="oOY07CiMVo815jskU7s_-13">
          <mxGeometry x="45" y="1830" width="10" height="180" as="geometry" />
        </mxCell>
        <mxCell id="oOY07CiMVo815jskU7s_-19" value="removeImmediately" style="html=1;align=left;spacingLeft=2;endArrow=block;rounded=0;edgeStyle=orthogonalEdgeStyle;curved=0;rounded=0;" edge="1" parent="oOY07CiMVo815jskU7s_-13" target="oOY07CiMVo815jskU7s_-20">
          <mxGeometry x="0.0118" relative="1" as="geometry">
            <mxPoint x="60" y="1910" as="sourcePoint" />
            <Array as="points">
              <mxPoint x="90" y="1910" />
              <mxPoint x="90" y="1940" />
            </Array>
            <mxPoint as="offset" />
          </mxGeometry>
        </mxCell>
        <mxCell id="oOY07CiMVo815jskU7s_-20" value="" style="html=1;points=[[0,0,0,0,5],[0,1,0,0,-5],[1,0,0,0,5],[1,1,0,0,-5]];perimeter=orthogonalPerimeter;outlineConnect=0;targetShapes=umlLifeline;portConstraint=eastwest;newEdgeStyle={&quot;curved&quot;:0,&quot;rounded&quot;:0};" vertex="1" parent="oOY07CiMVo815jskU7s_-13">
          <mxGeometry x="55" y="1920" width="10" height="50" as="geometry" />
        </mxCell>
        <mxCell id="oOY07CiMVo815jskU7s_-21" value="&lt;span style=&quot;color: rgb(0, 0, 0); font-size: 12px; background-color: rgb(251, 251, 251);&quot;&gt;removeIfPossible&lt;/span&gt;" style="html=1;verticalAlign=bottom;endArrow=block;curved=0;rounded=0;entryX=0;entryY=0;entryDx=0;entryDy=5;" edge="1" parent="1" source="oOY07CiMVo815jskU7s_-11" target="oOY07CiMVo815jskU7s_-14">
          <mxGeometry relative="1" as="geometry">
            <mxPoint x="350" y="805" as="sourcePoint" />
          </mxGeometry>
        </mxCell>
        <mxCell id="oOY07CiMVo815jskU7s_-22" value="&lt;span style=&quot;color: rgb(0, 0, 0);&quot;&gt;WindowStateAnimator&lt;/span&gt;" style="shape=umlLifeline;perimeter=lifelinePerimeter;whiteSpace=wrap;html=1;container=1;dropTarget=0;collapsible=0;recursiveResize=0;outlineConnect=0;portConstraint=eastwest;newEdgeStyle={&quot;curved&quot;:0,&quot;rounded&quot;:0};" vertex="1" parent="1">
          <mxGeometry x="670" y="860" width="140" height="1920" as="geometry" />
        </mxCell>
        <mxCell id="oOY07CiMVo815jskU7s_-23" value="" style="html=1;points=[[0,0,0,0,5],[0,1,0,0,-5],[1,0,0,0,5],[1,1,0,0,-5]];perimeter=orthogonalPerimeter;outlineConnect=0;targetShapes=umlLifeline;portConstraint=eastwest;newEdgeStyle={&quot;curved&quot;:0,&quot;rounded&quot;:0};" vertex="1" parent="oOY07CiMVo815jskU7s_-22">
          <mxGeometry x="65" y="150" width="10" height="80" as="geometry" />
        </mxCell>
        <mxCell id="oOY07CiMVo815jskU7s_-24" value="" style="html=1;points=[[0,0,0,0,5],[0,1,0,0,-5],[1,0,0,0,5],[1,1,0,0,-5]];perimeter=orthogonalPerimeter;outlineConnect=0;targetShapes=umlLifeline;portConstraint=eastwest;newEdgeStyle={&quot;curved&quot;:0,&quot;rounded&quot;:0};" vertex="1" parent="oOY07CiMVo815jskU7s_-22">
          <mxGeometry x="65" y="1780" width="10" height="80" as="geometry" />
        </mxCell>
        <mxCell id="oOY07CiMVo815jskU7s_-25" value="&lt;span style=&quot;color: rgb(0, 0, 0); font-size: 12px; background-color: rgb(251, 251, 251);&quot;&gt;applyAnimationLocked&lt;/span&gt;" style="html=1;verticalAlign=bottom;endArrow=block;curved=0;rounded=0;" edge="1" parent="1">
          <mxGeometry x="0.0028" relative="1" as="geometry">
            <mxPoint x="557" y="1040" as="sourcePoint" />
            <mxPoint x="736.5" y="1040" as="targetPoint" />
            <Array as="points">
              <mxPoint x="577" y="1040" />
              <mxPoint x="607" y="1040" />
            </Array>
            <mxPoint as="offset" />
          </mxGeometry>
        </mxCell>
        <mxCell id="oOY07CiMVo815jskU7s_-26" value="&lt;span style=&quot;color: rgb(0, 0, 0);&quot;&gt;Animation&lt;/span&gt;" style="shape=umlLifeline;perimeter=lifelinePerimeter;whiteSpace=wrap;html=1;container=1;dropTarget=0;collapsible=0;recursiveResize=0;outlineConnect=0;portConstraint=eastwest;newEdgeStyle={&quot;curved&quot;:0,&quot;rounded&quot;:0};" vertex="1" parent="1">
          <mxGeometry x="850" y="860" width="100" height="1460" as="geometry" />
        </mxCell>
        <mxCell id="oOY07CiMVo815jskU7s_-27" value="" style="html=1;points=[[0,0,0,0,5],[0,1,0,0,-5],[1,0,0,0,5],[1,1,0,0,-5]];perimeter=orthogonalPerimeter;outlineConnect=0;targetShapes=umlLifeline;portConstraint=eastwest;newEdgeStyle={&quot;curved&quot;:0,&quot;rounded&quot;:0};" vertex="1" parent="oOY07CiMVo815jskU7s_-26">
          <mxGeometry x="45" y="1230" width="10" height="60" as="geometry" />
        </mxCell>
        <mxCell id="oOY07CiMVo815jskU7s_-28" value="create" style="html=1;verticalAlign=bottom;endArrow=block;curved=0;rounded=0;" edge="1" parent="1" source="oOY07CiMVo815jskU7s_-23" target="oOY07CiMVo815jskU7s_-26">
          <mxGeometry width="80" relative="1" as="geometry">
            <mxPoint x="510" y="1030" as="sourcePoint" />
            <mxPoint x="590" y="1030" as="targetPoint" />
          </mxGeometry>
        </mxCell>
        <mxCell id="oOY07CiMVo815jskU7s_-29" value="查找，并创建动画" style="text;html=1;align=center;verticalAlign=middle;resizable=0;points=[];autosize=1;strokeColor=none;fillColor=none;" vertex="1" parent="1">
          <mxGeometry x="760" y="995" width="120" height="30" as="geometry" />
        </mxCell>
        <mxCell id="oOY07CiMVo815jskU7s_-30" value="&lt;span style=&quot;color: rgb(0, 0, 0);&quot;&gt;startAnimation&lt;/span&gt;" style="html=1;verticalAlign=bottom;endArrow=block;curved=0;rounded=0;exitX=0;exitY=1;exitDx=0;exitDy=-5;exitPerimeter=0;" edge="1" parent="1" source="oOY07CiMVo815jskU7s_-23" target="oOY07CiMVo815jskU7s_-14">
          <mxGeometry width="80" relative="1" as="geometry">
            <mxPoint x="510" y="1010" as="sourcePoint" />
            <mxPoint x="560" y="1085" as="targetPoint" />
            <mxPoint as="offset" />
          </mxGeometry>
        </mxCell>
        <mxCell id="oOY07CiMVo815jskU7s_-31" value="LocalAnimationAdapter" style="shape=umlLifeline;perimeter=lifelinePerimeter;whiteSpace=wrap;html=1;container=1;dropTarget=0;collapsible=0;recursiveResize=0;outlineConnect=0;portConstraint=eastwest;newEdgeStyle={&quot;curved&quot;:0,&quot;rounded&quot;:0};" vertex="1" parent="1">
          <mxGeometry x="990" y="860" width="150" height="1720" as="geometry" />
        </mxCell>
        <mxCell id="oOY07CiMVo815jskU7s_-32" value="" style="html=1;points=[[0,0,0,0,5],[0,1,0,0,-5],[1,0,0,0,5],[1,1,0,0,-5]];perimeter=orthogonalPerimeter;outlineConnect=0;targetShapes=umlLifeline;portConstraint=eastwest;newEdgeStyle={&quot;curved&quot;:0,&quot;rounded&quot;:0};" vertex="1" parent="oOY07CiMVo815jskU7s_-31">
          <mxGeometry x="70" y="550" width="10" height="80" as="geometry" />
        </mxCell>
        <mxCell id="oOY07CiMVo815jskU7s_-33" value="" style="html=1;points=[[0,0,0,0,5],[0,1,0,0,-5],[1,0,0,0,5],[1,1,0,0,-5]];perimeter=orthogonalPerimeter;outlineConnect=0;targetShapes=umlLifeline;portConstraint=eastwest;newEdgeStyle={&quot;curved&quot;:0,&quot;rounded&quot;:0};" vertex="1" parent="oOY07CiMVo815jskU7s_-31">
          <mxGeometry x="70" y="1530" width="10" height="80" as="geometry" />
        </mxCell>
        <mxCell id="oOY07CiMVo815jskU7s_-34" value="WindowAnimationSpec" style="shape=umlLifeline;perimeter=lifelinePerimeter;whiteSpace=wrap;html=1;container=1;dropTarget=0;collapsible=0;recursiveResize=0;outlineConnect=0;portConstraint=eastwest;newEdgeStyle={&quot;curved&quot;:0,&quot;rounded&quot;:0};" vertex="1" parent="1">
          <mxGeometry x="1180" y="860" width="150" height="1520" as="geometry" />
        </mxCell>
        <mxCell id="oOY07CiMVo815jskU7s_-35" value="" style="html=1;points=[[0,0,0,0,5],[0,1,0,0,-5],[1,0,0,0,5],[1,1,0,0,-5]];perimeter=orthogonalPerimeter;outlineConnect=0;targetShapes=umlLifeline;portConstraint=eastwest;newEdgeStyle={&quot;curved&quot;:0,&quot;rounded&quot;:0};" vertex="1" parent="oOY07CiMVo815jskU7s_-34">
          <mxGeometry x="70" y="1170" width="10" height="180" as="geometry" />
        </mxCell>
        <mxCell id="oOY07CiMVo815jskU7s_-36" value="create" style="html=1;verticalAlign=bottom;endArrow=block;curved=0;rounded=0;" edge="1" parent="1" source="oOY07CiMVo815jskU7s_-14" target="oOY07CiMVo815jskU7s_-31">
          <mxGeometry width="80" relative="1" as="geometry">
            <mxPoint x="880" y="1180" as="sourcePoint" />
            <mxPoint x="960" y="1180" as="targetPoint" />
            <Array as="points">
              <mxPoint x="810" y="1130" />
            </Array>
          </mxGeometry>
        </mxCell>
        <mxCell id="oOY07CiMVo815jskU7s_-37" value="create" style="html=1;verticalAlign=bottom;endArrow=block;curved=0;rounded=0;" edge="1" parent="1" source="oOY07CiMVo815jskU7s_-14" target="oOY07CiMVo815jskU7s_-34">
          <mxGeometry width="80" relative="1" as="geometry">
            <mxPoint x="560" y="1160" as="sourcePoint" />
            <mxPoint x="960" y="1080" as="targetPoint" />
            <Array as="points">
              <mxPoint x="690" y="1170" />
            </Array>
          </mxGeometry>
        </mxCell>
        <mxCell id="oOY07CiMVo815jskU7s_-38" value="SurfaceAnimator" style="shape=umlLifeline;perimeter=lifelinePerimeter;whiteSpace=wrap;html=1;container=1;dropTarget=0;collapsible=0;recursiveResize=0;outlineConnect=0;portConstraint=eastwest;newEdgeStyle={&quot;curved&quot;:0,&quot;rounded&quot;:0};" vertex="1" parent="1">
          <mxGeometry x="1360" y="860" width="100" height="1920" as="geometry" />
        </mxCell>
        <mxCell id="oOY07CiMVo815jskU7s_-39" value="" style="html=1;points=[[0,0,0,0,5],[0,1,0,0,-5],[1,0,0,0,5],[1,1,0,0,-5]];perimeter=orthogonalPerimeter;outlineConnect=0;targetShapes=umlLifeline;portConstraint=eastwest;newEdgeStyle={&quot;curved&quot;:0,&quot;rounded&quot;:0};" vertex="1" parent="oOY07CiMVo815jskU7s_-38">
          <mxGeometry x="45" y="400" width="10" height="160" as="geometry" />
        </mxCell>
        <mxCell id="oOY07CiMVo815jskU7s_-40" value="" style="html=1;points=[[0,0,0,0,5],[0,1,0,0,-5],[1,0,0,0,5],[1,1,0,0,-5]];perimeter=orthogonalPerimeter;outlineConnect=0;targetShapes=umlLifeline;portConstraint=eastwest;newEdgeStyle={&quot;curved&quot;:0,&quot;rounded&quot;:0};" vertex="1" parent="oOY07CiMVo815jskU7s_-38">
          <mxGeometry x="55" y="460" width="10" height="40" as="geometry" />
        </mxCell>
        <mxCell id="oOY07CiMVo815jskU7s_-41" value="createAnimationLeash" style="html=1;align=left;spacingLeft=2;endArrow=block;rounded=0;edgeStyle=orthogonalEdgeStyle;curved=0;rounded=0;" edge="1" parent="oOY07CiMVo815jskU7s_-38" source="oOY07CiMVo815jskU7s_-39" target="oOY07CiMVo815jskU7s_-40">
          <mxGeometry y="10" relative="1" as="geometry">
            <mxPoint x="60" y="440" as="sourcePoint" />
            <Array as="points">
              <mxPoint x="90" y="440" />
              <mxPoint x="90" y="480" />
            </Array>
            <mxPoint as="offset" />
          </mxGeometry>
        </mxCell>
        <mxCell id="oOY07CiMVo815jskU7s_-42" value="" style="html=1;points=[[0,0,0,0,5],[0,1,0,0,-5],[1,0,0,0,5],[1,1,0,0,-5]];perimeter=orthogonalPerimeter;outlineConnect=0;targetShapes=umlLifeline;portConstraint=eastwest;newEdgeStyle={&quot;curved&quot;:0,&quot;rounded&quot;:0};" vertex="1" parent="oOY07CiMVo815jskU7s_-38">
          <mxGeometry x="45" y="1600" width="10" height="170" as="geometry" />
        </mxCell>
        <mxCell id="oOY07CiMVo815jskU7s_-43" value="" style="html=1;points=[[0,0,0,0,5],[0,1,0,0,-5],[1,0,0,0,5],[1,1,0,0,-5]];perimeter=orthogonalPerimeter;outlineConnect=0;targetShapes=umlLifeline;portConstraint=eastwest;newEdgeStyle={&quot;curved&quot;:0,&quot;rounded&quot;:0};" vertex="1" parent="oOY07CiMVo815jskU7s_-38">
          <mxGeometry x="55" y="1630" width="10" height="100" as="geometry" />
        </mxCell>
        <mxCell id="oOY07CiMVo815jskU7s_-44" value="reset" style="html=1;align=left;spacingLeft=2;endArrow=block;rounded=0;edgeStyle=orthogonalEdgeStyle;curved=0;rounded=0;exitX=1;exitY=0;exitDx=0;exitDy=5;exitPerimeter=0;" edge="1" parent="oOY07CiMVo815jskU7s_-38" source="oOY07CiMVo815jskU7s_-42" target="oOY07CiMVo815jskU7s_-43">
          <mxGeometry x="0.0049" relative="1" as="geometry">
            <mxPoint x="60" y="1610" as="sourcePoint" />
            <Array as="points">
              <mxPoint x="55" y="1620" />
              <mxPoint x="140" y="1620" />
              <mxPoint x="140" y="1650" />
            </Array>
            <mxPoint as="offset" />
          </mxGeometry>
        </mxCell>
        <mxCell id="oOY07CiMVo815jskU7s_-45" value="" style="html=1;points=[[0,0,0,0,5],[0,1,0,0,-5],[1,0,0,0,5],[1,1,0,0,-5]];perimeter=orthogonalPerimeter;outlineConnect=0;targetShapes=umlLifeline;portConstraint=eastwest;newEdgeStyle={&quot;curved&quot;:0,&quot;rounded&quot;:0};" vertex="1" parent="oOY07CiMVo815jskU7s_-38">
          <mxGeometry x="65" y="1680" width="10" height="40" as="geometry" />
        </mxCell>
        <mxCell id="oOY07CiMVo815jskU7s_-46" value="removeLeash" style="html=1;align=left;spacingLeft=2;endArrow=block;rounded=0;edgeStyle=orthogonalEdgeStyle;curved=0;rounded=0;" edge="1" parent="oOY07CiMVo815jskU7s_-38" source="oOY07CiMVo815jskU7s_-43" target="oOY07CiMVo815jskU7s_-45">
          <mxGeometry relative="1" as="geometry">
            <mxPoint x="-20" y="1710" as="sourcePoint" />
            <Array as="points">
              <mxPoint x="150" y="1670" />
              <mxPoint x="150" y="1700" />
            </Array>
          </mxGeometry>
        </mxCell>
        <mxCell id="oOY07CiMVo815jskU7s_-47" value="startAnimation" style="html=1;verticalAlign=bottom;endArrow=block;curved=0;rounded=0;entryX=0;entryY=0;entryDx=0;entryDy=5;" edge="1" parent="1" source="oOY07CiMVo815jskU7s_-15" target="oOY07CiMVo815jskU7s_-39">
          <mxGeometry relative="1" as="geometry">
            <mxPoint x="950" y="1025" as="sourcePoint" />
          </mxGeometry>
        </mxCell>
        <mxCell id="oOY07CiMVo815jskU7s_-48" value="startAnimation" style="html=1;verticalAlign=bottom;endArrow=block;curved=0;rounded=0;entryX=1;entryY=0;entryDx=0;entryDy=5;entryPerimeter=0;exitX=0;exitY=1;exitDx=0;exitDy=-5;exitPerimeter=0;" edge="1" parent="1" source="oOY07CiMVo815jskU7s_-39" target="oOY07CiMVo815jskU7s_-32">
          <mxGeometry x="0.003" relative="1" as="geometry">
            <mxPoint x="1400" y="1415" as="sourcePoint" />
            <mxPoint as="offset" />
          </mxGeometry>
        </mxCell>
        <mxCell id="oOY07CiMVo815jskU7s_-49" value="SurfaceAnimationRunner" style="shape=umlLifeline;perimeter=lifelinePerimeter;whiteSpace=wrap;html=1;container=1;dropTarget=0;collapsible=0;recursiveResize=0;outlineConnect=0;portConstraint=eastwest;newEdgeStyle={&quot;curved&quot;:0,&quot;rounded&quot;:0};" vertex="1" parent="1">
          <mxGeometry x="1520" y="860" width="150" height="1710" as="geometry" />
        </mxCell>
        <mxCell id="oOY07CiMVo815jskU7s_-50" value="" style="html=1;points=[[0,0,0,0,5],[0,1,0,0,-5],[1,0,0,0,5],[1,1,0,0,-5]];perimeter=orthogonalPerimeter;outlineConnect=0;targetShapes=umlLifeline;portConstraint=eastwest;newEdgeStyle={&quot;curved&quot;:0,&quot;rounded&quot;:0};" vertex="1" parent="oOY07CiMVo815jskU7s_-49">
          <mxGeometry x="70" y="580" width="10" height="60" as="geometry" />
        </mxCell>
        <mxCell id="oOY07CiMVo815jskU7s_-51" value="" style="html=1;points=[[0,0,0,0,5],[0,1,0,0,-5],[1,0,0,0,5],[1,1,0,0,-5]];perimeter=orthogonalPerimeter;outlineConnect=0;targetShapes=umlLifeline;portConstraint=eastwest;newEdgeStyle={&quot;curved&quot;:0,&quot;rounded&quot;:0};" vertex="1" parent="oOY07CiMVo815jskU7s_-49">
          <mxGeometry x="70" y="740" width="10" height="260" as="geometry" />
        </mxCell>
        <mxCell id="oOY07CiMVo815jskU7s_-52" value="" style="html=1;points=[[0,0,0,0,5],[0,1,0,0,-5],[1,0,0,0,5],[1,1,0,0,-5]];perimeter=orthogonalPerimeter;outlineConnect=0;targetShapes=umlLifeline;portConstraint=eastwest;newEdgeStyle={&quot;curved&quot;:0,&quot;rounded&quot;:0};" vertex="1" parent="oOY07CiMVo815jskU7s_-49">
          <mxGeometry x="80" y="800" width="10" height="170" as="geometry" />
        </mxCell>
        <mxCell id="oOY07CiMVo815jskU7s_-53" value="startPendingAnimationsLocked" style="html=1;align=left;spacingLeft=2;endArrow=block;rounded=0;edgeStyle=orthogonalEdgeStyle;curved=0;rounded=0;" edge="1" parent="oOY07CiMVo815jskU7s_-49" source="oOY07CiMVo815jskU7s_-51" target="oOY07CiMVo815jskU7s_-52">
          <mxGeometry relative="1" as="geometry">
            <mxPoint x="110" y="750" as="sourcePoint" />
            <Array as="points">
              <mxPoint x="140" y="780" />
              <mxPoint x="140" y="820" />
            </Array>
          </mxGeometry>
        </mxCell>
        <mxCell id="oOY07CiMVo815jskU7s_-54" value="" style="html=1;points=[[0,0,0,0,5],[0,1,0,0,-5],[1,0,0,0,5],[1,1,0,0,-5]];perimeter=orthogonalPerimeter;outlineConnect=0;targetShapes=umlLifeline;portConstraint=eastwest;newEdgeStyle={&quot;curved&quot;:0,&quot;rounded&quot;:0};" vertex="1" parent="oOY07CiMVo815jskU7s_-49">
          <mxGeometry x="90" y="870" width="10" height="70" as="geometry" />
        </mxCell>
        <mxCell id="oOY07CiMVo815jskU7s_-55" value="startAnimationLocked" style="html=1;align=left;spacingLeft=2;endArrow=block;rounded=0;edgeStyle=orthogonalEdgeStyle;curved=0;rounded=0;" edge="1" parent="oOY07CiMVo815jskU7s_-49" source="oOY07CiMVo815jskU7s_-52" target="oOY07CiMVo815jskU7s_-54">
          <mxGeometry relative="1" as="geometry">
            <mxPoint x="110" y="750" as="sourcePoint" />
            <Array as="points">
              <mxPoint x="140" y="850" />
              <mxPoint x="140" y="880" />
            </Array>
            <mxPoint as="offset" />
          </mxGeometry>
        </mxCell>
        <mxCell id="oOY07CiMVo815jskU7s_-56" value="" style="html=1;points=[[0,0,0,0,5],[0,1,0,0,-5],[1,0,0,0,5],[1,1,0,0,-5]];perimeter=orthogonalPerimeter;outlineConnect=0;targetShapes=umlLifeline;portConstraint=eastwest;newEdgeStyle={&quot;curved&quot;:0,&quot;rounded&quot;:0};" vertex="1" parent="oOY07CiMVo815jskU7s_-49">
          <mxGeometry x="70" y="1120" width="10" height="80" as="geometry" />
        </mxCell>
        <mxCell id="oOY07CiMVo815jskU7s_-57" value="" style="html=1;points=[[0,0,0,0,5],[0,1,0,0,-5],[1,0,0,0,5],[1,1,0,0,-5]];perimeter=orthogonalPerimeter;outlineConnect=0;targetShapes=umlLifeline;portConstraint=eastwest;newEdgeStyle={&quot;curved&quot;:0,&quot;rounded&quot;:0};" vertex="1" parent="oOY07CiMVo815jskU7s_-49">
          <mxGeometry x="70" y="1470" width="10" height="80" as="geometry" />
        </mxCell>
        <mxCell id="oOY07CiMVo815jskU7s_-58" value="&lt;span style=&quot;color: rgb(0, 0, 0);&quot;&gt;startAnimation&lt;/span&gt;" style="html=1;verticalAlign=bottom;endArrow=block;curved=0;rounded=0;entryX=0;entryY=0;entryDx=0;entryDy=5;" edge="1" parent="1" source="oOY07CiMVo815jskU7s_-32" target="oOY07CiMVo815jskU7s_-50">
          <mxGeometry x="0.001" relative="1" as="geometry">
            <mxPoint x="1520" y="1445" as="sourcePoint" />
            <mxPoint as="offset" />
          </mxGeometry>
        </mxCell>
        <mxCell id="oOY07CiMVo815jskU7s_-59" value=":Choreographer" style="shape=umlLifeline;perimeter=lifelinePerimeter;whiteSpace=wrap;html=1;container=1;dropTarget=0;collapsible=0;recursiveResize=0;outlineConnect=0;portConstraint=eastwest;newEdgeStyle={&quot;curved&quot;:0,&quot;rounded&quot;:0};" vertex="1" parent="1">
          <mxGeometry x="1700" y="860" width="100" height="1500" as="geometry" />
        </mxCell>
        <mxCell id="oOY07CiMVo815jskU7s_-60" value="" style="html=1;points=[[0,0,0,0,5],[0,1,0,0,-5],[1,0,0,0,5],[1,1,0,0,-5]];perimeter=orthogonalPerimeter;outlineConnect=0;targetShapes=umlLifeline;portConstraint=eastwest;newEdgeStyle={&quot;curved&quot;:0,&quot;rounded&quot;:0};" vertex="1" parent="oOY07CiMVo815jskU7s_-59">
          <mxGeometry x="45" y="590" width="10" height="50" as="geometry" />
        </mxCell>
        <mxCell id="oOY07CiMVo815jskU7s_-61" value="" style="html=1;points=[[0,0,0,0,5],[0,1,0,0,-5],[1,0,0,0,5],[1,1,0,0,-5]];perimeter=orthogonalPerimeter;outlineConnect=0;targetShapes=umlLifeline;portConstraint=eastwest;newEdgeStyle={&quot;curved&quot;:0,&quot;rounded&quot;:0};" vertex="1" parent="oOY07CiMVo815jskU7s_-59">
          <mxGeometry x="45" y="690" width="10" height="80" as="geometry" />
        </mxCell>
        <mxCell id="oOY07CiMVo815jskU7s_-62" value="" style="html=1;points=[[0,0,0,0,5],[0,1,0,0,-5],[1,0,0,0,5],[1,1,0,0,-5]];perimeter=orthogonalPerimeter;outlineConnect=0;targetShapes=umlLifeline;portConstraint=eastwest;newEdgeStyle={&quot;curved&quot;:0,&quot;rounded&quot;:0};" vertex="1" parent="oOY07CiMVo815jskU7s_-59">
          <mxGeometry x="45" y="930" width="10" height="80" as="geometry" />
        </mxCell>
        <mxCell id="oOY07CiMVo815jskU7s_-63" value="" style="html=1;points=[[0,0,0,0,5],[0,1,0,0,-5],[1,0,0,0,5],[1,1,0,0,-5]];perimeter=orthogonalPerimeter;outlineConnect=0;targetShapes=umlLifeline;portConstraint=eastwest;newEdgeStyle={&quot;curved&quot;:0,&quot;rounded&quot;:0};" vertex="1" parent="oOY07CiMVo815jskU7s_-59">
          <mxGeometry x="45" y="1040" width="10" height="60" as="geometry" />
        </mxCell>
        <mxCell id="oOY07CiMVo815jskU7s_-64" value="postFrameCallback" style="html=1;verticalAlign=bottom;endArrow=block;curved=0;rounded=0;entryX=0;entryY=0;entryDx=0;entryDy=5;" edge="1" parent="1" target="oOY07CiMVo815jskU7s_-60">
          <mxGeometry x="0.0069" relative="1" as="geometry">
            <mxPoint x="1600" y="1455" as="sourcePoint" />
            <mxPoint as="offset" />
          </mxGeometry>
        </mxCell>
        <mxCell id="oOY07CiMVo815jskU7s_-65" value="Vsync" style="html=1;verticalAlign=bottom;startArrow=oval;startFill=1;endArrow=block;startSize=8;curved=0;rounded=0;" edge="1" parent="1" target="oOY07CiMVo815jskU7s_-61">
          <mxGeometry width="60" relative="1" as="geometry">
            <mxPoint x="1900" y="1570" as="sourcePoint" />
            <mxPoint x="1760" y="1570" as="targetPoint" />
            <Array as="points">
              <mxPoint x="1870" y="1570" />
            </Array>
          </mxGeometry>
        </mxCell>
        <mxCell id="oOY07CiMVo815jskU7s_-66" value="startAnimations" style="html=1;verticalAlign=bottom;endArrow=block;curved=0;rounded=0;entryX=1;entryY=0;entryDx=0;entryDy=5;entryPerimeter=0;" edge="1" parent="1" source="oOY07CiMVo815jskU7s_-61" target="oOY07CiMVo815jskU7s_-51">
          <mxGeometry relative="1" as="geometry">
            <mxPoint x="1520" y="1605" as="sourcePoint" />
          </mxGeometry>
        </mxCell>
        <mxCell id="oOY07CiMVo815jskU7s_-67" value="ValueAnimator" style="shape=umlLifeline;perimeter=lifelinePerimeter;whiteSpace=wrap;html=1;container=1;dropTarget=0;collapsible=0;recursiveResize=0;outlineConnect=0;portConstraint=eastwest;newEdgeStyle={&quot;curved&quot;:0,&quot;rounded&quot;:0};" vertex="1" parent="1">
          <mxGeometry x="1940" y="860" width="100" height="1530" as="geometry" />
        </mxCell>
        <mxCell id="oOY07CiMVo815jskU7s_-68" value="" style="html=1;points=[[0,0,0,0,5],[0,1,0,0,-5],[1,0,0,0,5],[1,1,0,0,-5]];perimeter=orthogonalPerimeter;outlineConnect=0;targetShapes=umlLifeline;portConstraint=eastwest;newEdgeStyle={&quot;curved&quot;:0,&quot;rounded&quot;:0};" vertex="1" parent="oOY07CiMVo815jskU7s_-67">
          <mxGeometry x="45" y="900" width="10" height="60" as="geometry" />
        </mxCell>
        <mxCell id="oOY07CiMVo815jskU7s_-69" value="" style="html=1;points=[[0,0,0,0,5],[0,1,0,0,-5],[1,0,0,0,5],[1,1,0,0,-5]];perimeter=orthogonalPerimeter;outlineConnect=0;targetShapes=umlLifeline;portConstraint=eastwest;newEdgeStyle={&quot;curved&quot;:0,&quot;rounded&quot;:0};" vertex="1" parent="oOY07CiMVo815jskU7s_-67">
          <mxGeometry x="45" y="1070" width="10" height="70" as="geometry" />
        </mxCell>
        <mxCell id="oOY07CiMVo815jskU7s_-70" value="" style="html=1;points=[[0,0,0,0,5],[0,1,0,0,-5],[1,0,0,0,5],[1,1,0,0,-5]];perimeter=orthogonalPerimeter;outlineConnect=0;targetShapes=umlLifeline;portConstraint=eastwest;newEdgeStyle={&quot;curved&quot;:0,&quot;rounded&quot;:0};" vertex="1" parent="oOY07CiMVo815jskU7s_-67">
          <mxGeometry x="45" y="1430" width="10" height="80" as="geometry" />
        </mxCell>
        <mxCell id="oOY07CiMVo815jskU7s_-71" value="onAnimationEnd" style="html=1;verticalAlign=bottom;endArrow=block;curved=0;rounded=0;entryX=1;entryY=0;entryDx=0;entryDy=5;" edge="1" parent="oOY07CiMVo815jskU7s_-67" target="oOY07CiMVo815jskU7s_-70">
          <mxGeometry relative="1" as="geometry">
            <mxPoint x="160" y="1435" as="sourcePoint" />
          </mxGeometry>
        </mxCell>
        <mxCell id="oOY07CiMVo815jskU7s_-72" value="start" style="html=1;verticalAlign=bottom;endArrow=block;curved=0;rounded=0;entryX=0;entryY=0;entryDx=0;entryDy=5;" edge="1" parent="1" source="oOY07CiMVo815jskU7s_-54" target="oOY07CiMVo815jskU7s_-68">
          <mxGeometry relative="1" as="geometry">
            <mxPoint x="1910" y="1765" as="sourcePoint" />
          </mxGeometry>
        </mxCell>
        <mxCell id="oOY07CiMVo815jskU7s_-73" value="&lt;span style=&quot;color: rgb(0, 0, 0);&quot;&gt;postFrameCallback&lt;/span&gt;" style="html=1;verticalAlign=bottom;endArrow=block;curved=0;rounded=0;" edge="1" parent="1" source="oOY07CiMVo815jskU7s_-68">
          <mxGeometry x="0.0022" relative="1" as="geometry">
            <mxPoint x="1978" y="1810" as="sourcePoint" />
            <mxPoint x="1757.5" y="1810" as="targetPoint" />
            <Array as="points">
              <mxPoint x="1868" y="1810" />
            </Array>
            <mxPoint as="offset" />
          </mxGeometry>
        </mxCell>
        <mxCell id="oOY07CiMVo815jskU7s_-74" value="Vsync" style="html=1;verticalAlign=bottom;startArrow=oval;startFill=1;endArrow=block;startSize=8;curved=0;rounded=0;" edge="1" parent="1">
          <mxGeometry width="60" relative="1" as="geometry">
            <mxPoint x="1901" y="1910" as="sourcePoint" />
            <mxPoint x="1756" y="1910" as="targetPoint" />
            <Array as="points">
              <mxPoint x="1871" y="1910" />
            </Array>
          </mxGeometry>
        </mxCell>
        <mxCell id="oOY07CiMVo815jskU7s_-75" value="update" style="html=1;verticalAlign=bottom;endArrow=block;curved=0;rounded=0;entryX=0;entryY=0;entryDx=0;entryDy=5;" edge="1" parent="1" source="oOY07CiMVo815jskU7s_-63" target="oOY07CiMVo815jskU7s_-69">
          <mxGeometry relative="1" as="geometry">
            <mxPoint x="1760" y="1935" as="sourcePoint" />
          </mxGeometry>
        </mxCell>
        <mxCell id="oOY07CiMVo815jskU7s_-76" value="applyTransformation" style="html=1;verticalAlign=bottom;endArrow=block;curved=0;rounded=0;" edge="1" parent="1">
          <mxGeometry relative="1" as="geometry">
            <mxPoint x="1985" y="1985" as="sourcePoint" />
            <mxPoint x="1599.5" y="1985" as="targetPoint" />
          </mxGeometry>
        </mxCell>
        <mxCell id="oOY07CiMVo815jskU7s_-77" value="apply" style="html=1;verticalAlign=bottom;endArrow=block;curved=0;rounded=0;entryX=1;entryY=0;entryDx=0;entryDy=5;entryPerimeter=0;exitX=-0.32;exitY=0.69;exitDx=0;exitDy=0;exitPerimeter=0;" edge="1" parent="1">
          <mxGeometry x="-0.0024" relative="1" as="geometry">
            <mxPoint x="1587.8000000000002" y="2035.1999999999998" as="sourcePoint" />
            <mxPoint x="1261" y="2035" as="targetPoint" />
            <mxPoint as="offset" />
          </mxGeometry>
        </mxCell>
        <mxCell id="oOY07CiMVo815jskU7s_-78" value="getTransformation" style="html=1;verticalAlign=bottom;endArrow=block;curved=0;rounded=0;" edge="1" parent="1" source="oOY07CiMVo815jskU7s_-35" target="oOY07CiMVo815jskU7s_-27">
          <mxGeometry x="0.0029" relative="1" as="geometry">
            <mxPoint x="820" y="2095" as="sourcePoint" />
            <Array as="points">
              <mxPoint x="1080" y="2100" />
            </Array>
            <mxPoint as="offset" />
          </mxGeometry>
        </mxCell>
        <mxCell id="oOY07CiMVo815jskU7s_-79" value="Transaction" style="shape=umlLifeline;perimeter=lifelinePerimeter;whiteSpace=wrap;html=1;container=1;dropTarget=0;collapsible=0;recursiveResize=0;outlineConnect=0;portConstraint=eastwest;newEdgeStyle={&quot;curved&quot;:0,&quot;rounded&quot;:0};" vertex="1" parent="1">
          <mxGeometry x="2140" y="860" width="100" height="1470" as="geometry" />
        </mxCell>
        <mxCell id="oOY07CiMVo815jskU7s_-80" value="" style="html=1;points=[[0,0,0,0,5],[0,1,0,0,-5],[1,0,0,0,5],[1,1,0,0,-5]];perimeter=orthogonalPerimeter;outlineConnect=0;targetShapes=umlLifeline;portConstraint=eastwest;newEdgeStyle={&quot;curved&quot;:0,&quot;rounded&quot;:0};" vertex="1" parent="oOY07CiMVo815jskU7s_-79">
          <mxGeometry x="45" y="1280" width="10" height="80" as="geometry" />
        </mxCell>
        <mxCell id="oOY07CiMVo815jskU7s_-81" value="return" style="html=1;verticalAlign=bottom;endArrow=open;dashed=1;endSize=8;curved=0;rounded=0;" edge="1" parent="1" target="oOY07CiMVo815jskU7s_-35">
          <mxGeometry relative="1" as="geometry">
            <mxPoint x="1470" y="2255" as="targetPoint" />
            <mxPoint x="910" y="2140" as="sourcePoint" />
            <Array as="points">
              <mxPoint x="1070" y="2140" />
            </Array>
          </mxGeometry>
        </mxCell>
        <mxCell id="oOY07CiMVo815jskU7s_-82" value="apply to transaction" style="html=1;verticalAlign=bottom;endArrow=block;curved=0;rounded=0;" edge="1" parent="1" source="oOY07CiMVo815jskU7s_-35" target="oOY07CiMVo815jskU7s_-80">
          <mxGeometry relative="1" as="geometry">
            <mxPoint x="2110" y="2145" as="sourcePoint" />
            <mxPoint x="2180" y="2160" as="targetPoint" />
            <Array as="points">
              <mxPoint x="1720" y="2160" />
            </Array>
          </mxGeometry>
        </mxCell>
        <mxCell id="oOY07CiMVo815jskU7s_-83" value="动画效果执行流程" style="text;html=1;align=center;verticalAlign=middle;whiteSpace=wrap;rounded=0;" vertex="1" parent="1">
          <mxGeometry x="2110" y="1890" width="60" height="30" as="geometry" />
        </mxCell>
        <mxCell id="oOY07CiMVo815jskU7s_-84" value="动画启动流程" style="text;html=1;align=center;verticalAlign=middle;whiteSpace=wrap;rounded=0;" vertex="1" parent="1">
          <mxGeometry x="1940" y="995" width="60" height="30" as="geometry" />
        </mxCell>
        <mxCell id="oOY07CiMVo815jskU7s_-85" value="&lt;span style=&quot;color: rgb(0, 0, 0);&quot;&gt;onAnimationEnd&amp;nbsp;&lt;/span&gt;callback" style="html=1;verticalAlign=bottom;endArrow=block;curved=0;rounded=0;entryX=1;entryY=0;entryDx=0;entryDy=5;" edge="1" parent="1" source="oOY07CiMVo815jskU7s_-70" target="oOY07CiMVo815jskU7s_-57">
          <mxGeometry x="0.0026" relative="1" as="geometry">
            <mxPoint x="1670" y="2335" as="sourcePoint" />
            <mxPoint as="offset" />
          </mxGeometry>
        </mxCell>
        <mxCell id="oOY07CiMVo815jskU7s_-86" value="onAnimationFinished&amp;nbsp; callback" style="html=1;verticalAlign=bottom;endArrow=block;curved=0;rounded=0;entryX=1;entryY=0;entryDx=0;entryDy=5;" edge="1" parent="1" source="oOY07CiMVo815jskU7s_-57" target="oOY07CiMVo815jskU7s_-33">
          <mxGeometry relative="1" as="geometry">
            <mxPoint x="1140" y="2395" as="sourcePoint" />
          </mxGeometry>
        </mxCell>
        <mxCell id="oOY07CiMVo815jskU7s_-87" value="&lt;span style=&quot;color: rgb(0, 0, 0);&quot;&gt;onAnimationFinished&amp;nbsp; callback&lt;/span&gt;" style="html=1;verticalAlign=bottom;endArrow=block;curved=0;rounded=0;entryX=0;entryY=0;entryDx=0;entryDy=5;" edge="1" parent="1" source="oOY07CiMVo815jskU7s_-33" target="oOY07CiMVo815jskU7s_-42">
          <mxGeometry x="0.003" relative="1" as="geometry">
            <mxPoint x="1335" y="2465" as="sourcePoint" />
            <mxPoint as="offset" />
          </mxGeometry>
        </mxCell>
        <mxCell id="oOY07CiMVo815jskU7s_-88" value="onAnimationFinished&amp;nbsp; callback" style="html=1;verticalAlign=bottom;endArrow=block;curved=0;rounded=0;entryX=1;entryY=0;entryDx=0;entryDy=5;" edge="1" parent="1" target="oOY07CiMVo815jskU7s_-17">
          <mxGeometry x="0.0012" relative="1" as="geometry">
            <mxPoint x="1400" y="2600" as="sourcePoint" />
            <mxPoint as="offset" />
          </mxGeometry>
        </mxCell>
        <mxCell id="oOY07CiMVo815jskU7s_-89" value="onAnimationFinished" style="html=1;verticalAlign=bottom;endArrow=block;curved=0;rounded=0;entryX=0;entryY=0;entryDx=0;entryDy=5;" edge="1" parent="1">
          <mxGeometry relative="1" as="geometry">
            <mxPoint x="557" y="2645" as="sourcePoint" />
            <mxPoint x="732" y="2645" as="targetPoint" />
          </mxGeometry>
        </mxCell>
        <mxCell id="oOY07CiMVo815jskU7s_-90" value="onExitAnimationDone" style="html=1;verticalAlign=bottom;endArrow=block;curved=0;rounded=0;entryX=1;entryY=0;entryDx=0;entryDy=5;" edge="1" parent="1" source="oOY07CiMVo815jskU7s_-24" target="oOY07CiMVo815jskU7s_-18">
          <mxGeometry relative="1" as="geometry">
            <mxPoint x="625" y="2695" as="sourcePoint" />
          </mxGeometry>
        </mxCell>
        <mxCell id="oOY07CiMVo815jskU7s_-91" value="&lt;div style=&quot;color: rgb(204, 204, 204); background-color: rgb(31, 31, 31); font-family: Consolas, &amp;quot;Courier New&amp;quot;, monospace; font-size: 14px; line-height: 19px; white-space-collapse: preserve;&quot;&gt;&lt;div&gt;&lt;span style=&quot;color: rgb(197, 134, 192);&quot;&gt;&lt;span style=&quot;white-space: pre;&quot;&gt;&#x9;&lt;/span&gt;if&lt;/span&gt;&lt;span style=&quot;color: rgb(204, 204, 204);&quot;&gt; (mActivityRecord &lt;/span&gt;&lt;span style=&quot;color: rgb(212, 212, 212);&quot;&gt;!=&lt;/span&gt;&lt;span style=&quot;color: rgb(204, 204, 204);&quot;&gt; &lt;/span&gt;&lt;span style=&quot;color: rgb(86, 156, 214);&quot;&gt;null&lt;/span&gt;&lt;span style=&quot;color: rgb(204, 204, 204);&quot;&gt;) {&lt;/span&gt;&lt;/div&gt;&lt;div&gt;&lt;span style=&quot;color: rgb(204, 204, 204);&quot;&gt;&amp;nbsp; &amp;nbsp; &amp;nbsp; &amp;nbsp; &amp;nbsp; &amp;nbsp; &lt;/span&gt;&lt;span style=&quot;color: rgb(197, 134, 192);&quot;&gt;if&lt;/span&gt;&lt;span style=&quot;color: rgb(204, 204, 204);&quot;&gt; (&lt;/span&gt;&lt;span style=&quot;color: rgb(156, 220, 254);&quot;&gt;mAttrs&lt;/span&gt;&lt;span style=&quot;color: rgb(204, 204, 204);&quot;&gt;.&lt;/span&gt;&lt;span style=&quot;color: rgb(156, 220, 254);&quot;&gt;type&lt;/span&gt;&lt;span style=&quot;color: rgb(204, 204, 204);&quot;&gt; &lt;/span&gt;&lt;span style=&quot;color: rgb(212, 212, 212);&quot;&gt;==&lt;/span&gt;&lt;span style=&quot;color: rgb(204, 204, 204);&quot;&gt; TYPE_BASE_APPLICATION) {&lt;/span&gt;&lt;/div&gt;&lt;div&gt;&lt;span style=&quot;color: rgb(204, 204, 204);&quot;&gt;&amp;nbsp; &amp;nbsp; &amp;nbsp; &amp;nbsp; &amp;nbsp; &amp;nbsp; &amp;nbsp; &amp;nbsp; &lt;/span&gt;&lt;span style=&quot;color: rgb(156, 220, 254);&quot;&gt;mActivityRecord&lt;/span&gt;&lt;span style=&quot;color: rgb(204, 204, 204);&quot;&gt;.&lt;/span&gt;&lt;span style=&quot;color: rgb(220, 220, 170);&quot;&gt;destroySurfaces&lt;/span&gt;&lt;span style=&quot;color: rgb(204, 204, 204);&quot;&gt;();&lt;/span&gt;&lt;/div&gt;&lt;div&gt;&lt;span style=&quot;color: rgb(204, 204, 204);&quot;&gt;&amp;nbsp; &amp;nbsp; &amp;nbsp; &amp;nbsp; &amp;nbsp; &amp;nbsp; } &lt;/span&gt;&lt;span style=&quot;color: rgb(197, 134, 192);&quot;&gt;else&lt;/span&gt;&lt;span style=&quot;color: rgb(204, 204, 204);&quot;&gt; {&lt;/span&gt;&lt;/div&gt;&lt;div&gt;&lt;span style=&quot;color: rgb(204, 204, 204);&quot;&gt;&amp;nbsp; &amp;nbsp; &amp;nbsp; &amp;nbsp; &amp;nbsp; &amp;nbsp; &amp;nbsp; &amp;nbsp; &lt;/span&gt;&lt;span style=&quot;color: rgb(220, 220, 170);&quot;&gt;destroySurface&lt;/span&gt;&lt;span style=&quot;color: rgb(204, 204, 204);&quot;&gt;(&lt;/span&gt;&lt;span style=&quot;color: rgb(86, 156, 214);&quot;&gt;false&lt;/span&gt;&lt;span style=&quot;color: rgb(204, 204, 204);&quot;&gt; &lt;/span&gt;&lt;span style=&quot;color: rgb(106, 153, 85);&quot;&gt;/* cleanupOnResume */&lt;/span&gt;&lt;span style=&quot;color: rgb(204, 204, 204);&quot;&gt;, &lt;/span&gt;&lt;span style=&quot;color: rgb(156, 220, 254);&quot;&gt;mActivityRecord&lt;/span&gt;&lt;span style=&quot;color: rgb(204, 204, 204);&quot;&gt;.&lt;/span&gt;&lt;span style=&quot;color: rgb(156, 220, 254);&quot;&gt;mAppStopped&lt;/span&gt;&lt;span style=&quot;color: rgb(204, 204, 204);&quot;&gt;);&lt;/span&gt;&lt;/div&gt;&lt;div&gt;&lt;span style=&quot;color: rgb(204, 204, 204);&quot;&gt;&amp;nbsp; &amp;nbsp; &amp;nbsp; &amp;nbsp; &amp;nbsp; &amp;nbsp; }&lt;/span&gt;&lt;/div&gt;&lt;div&gt;&lt;span style=&quot;color: rgb(204, 204, 204);&quot;&gt;&amp;nbsp; &amp;nbsp; &amp;nbsp; &amp;nbsp; } &lt;/span&gt;&lt;span style=&quot;color: rgb(197, 134, 192);&quot;&gt;else&lt;/span&gt;&lt;span style=&quot;color: rgb(204, 204, 204);&quot;&gt; {&lt;/span&gt;&lt;/div&gt;&lt;div style=&quot;&quot;&gt;&lt;span style=&quot;color: rgb(204, 204, 204);&quot;&gt;&amp;nbsp; &amp;nbsp; &amp;nbsp; &amp;nbsp; &amp;nbsp; &amp;nbsp; &lt;/span&gt;&lt;span style=&quot;color: rgb(197, 134, 192);&quot;&gt;if&lt;/span&gt;&lt;span style=&quot;color: rgb(204, 204, 204);&quot;&gt; (hasSurface) {&lt;/span&gt;&lt;/div&gt;&lt;div&gt;&lt;span style=&quot;color: rgb(204, 204, 204);&quot;&gt;&amp;nbsp; &amp;nbsp; &amp;nbsp; &amp;nbsp; &amp;nbsp; &amp;nbsp; &amp;nbsp; &amp;nbsp; &lt;/span&gt;&lt;span style=&quot;color: rgb(156, 220, 254);&quot;&gt;mWmService&lt;/span&gt;&lt;span style=&quot;color: rgb(204, 204, 204);&quot;&gt;.&lt;/span&gt;&lt;span style=&quot;color: rgb(156, 220, 254);&quot;&gt;mDestroySurface&lt;/span&gt;&lt;span style=&quot;color: rgb(204, 204, 204);&quot;&gt;.&lt;/span&gt;&lt;span style=&quot;color: rgb(220, 220, 170);&quot;&gt;add&lt;/span&gt;&lt;span style=&quot;color: rgb(204, 204, 204);&quot;&gt;(&lt;/span&gt;&lt;span style=&quot;color: rgb(86, 156, 214);&quot;&gt;this&lt;/span&gt;&lt;span style=&quot;color: rgb(204, 204, 204);&quot;&gt;);&lt;/span&gt;&lt;/div&gt;&lt;div&gt;&lt;span style=&quot;color: rgb(204, 204, 204);&quot;&gt;&amp;nbsp; &amp;nbsp; &amp;nbsp; &amp;nbsp; &amp;nbsp; &amp;nbsp; }&lt;/span&gt;&lt;/div&gt;&lt;div&gt;&lt;span style=&quot;color: rgb(204, 204, 204);&quot;&gt;&amp;nbsp; &amp;nbsp; &amp;nbsp; &amp;nbsp; }&lt;/span&gt;&lt;/div&gt;&lt;/div&gt;" style="text;html=1;align=left;verticalAlign=middle;resizable=0;points=[];autosize=1;strokeColor=none;fillColor=none;" vertex="1" parent="1">
          <mxGeometry x="-180" y="2650" width="710" height="220" as="geometry" />
        </mxCell>
        <mxCell id="oOY07CiMVo815jskU7s_-92" value="destroySurface" style="html=1;align=left;spacingLeft=2;endArrow=block;rounded=0;edgeStyle=orthogonalEdgeStyle;curved=0;rounded=0;" edge="1" parent="1" target="oOY07CiMVo815jskU7s_-93">
          <mxGeometry relative="1" as="geometry">
            <mxPoint x="555" y="2730" as="sourcePoint" />
            <Array as="points">
              <mxPoint x="585" y="2760" />
            </Array>
          </mxGeometry>
        </mxCell>
        <mxCell id="oOY07CiMVo815jskU7s_-93" value="" style="html=1;points=[[0,0,0,0,5],[0,1,0,0,-5],[1,0,0,0,5],[1,1,0,0,-5]];perimeter=orthogonalPerimeter;outlineConnect=0;targetShapes=umlLifeline;portConstraint=eastwest;newEdgeStyle={&quot;curved&quot;:0,&quot;rounded&quot;:0};" vertex="1" parent="1">
          <mxGeometry x="550" y="2750" width="10" height="80" as="geometry" />
        </mxCell>
        <mxCell id="oOY07CiMVo815jskU7s_-94" value="" style="verticalLabelPosition=bottom;verticalAlign=top;html=1;shadow=0;dashed=0;strokeWidth=1;strokeColor=none;shape=rect;fillColor=#0099cc;opacity=30;" vertex="1" parent="1">
          <mxGeometry x="530" y="2710" width="320" height="170" as="geometry" />
        </mxCell>
        <mxCell id="oOY07CiMVo815jskU7s_-95" value="挂载在ActivityRecord的windowState移除流程，其他窗口添加到等待移除列表中" style="text;html=1;align=center;verticalAlign=middle;whiteSpace=wrap;rounded=0;" vertex="1" parent="1">
          <mxGeometry x="730" y="2720" width="120" height="60" as="geometry" />
        </mxCell>
        <mxCell id="oOY07CiMVo815jskU7s_-96" value="窗口动画结束后图层回收流程" style="text;html=1;align=center;verticalAlign=middle;whiteSpace=wrap;rounded=0;" vertex="1" parent="1">
          <mxGeometry x="2020" y="2340" width="90" height="30" as="geometry" />
        </mxCell>
      </root>
    </mxGraphModel>
  </diagram>
</mxfile>
